<svg width="567" height="208" viewBox="0 0 567 208" fill="none" xmlns="http://www.w3.org/2000/svg">
<path d="M441.917 97.6021V119.724C441.917 128.881 445.997 137.554 453.053 143.395L496.976 179.744C498.757 181.218 501.398 180.979 502.886 179.205C504.353 177.451 504.155 174.852 502.435 173.344L490.33 162.719C489.771 162.228 489.743 161.361 490.269 160.836C490.733 160.372 491.47 160.331 491.981 160.74L506.57 172.306C508.638 173.944 511.627 173.678 513.373 171.692C515.209 169.597 514.963 166.404 512.827 164.623L500.368 154.21C499.706 153.658 499.672 152.655 500.299 152.061C500.825 151.563 501.637 151.529 502.203 151.986L518.334 165.073C520.524 166.854 523.738 166.54 525.553 164.377C527.416 162.153 527.082 158.837 524.823 157.028L510.651 145.674C509.771 144.971 509.736 143.647 510.576 142.897C511.251 142.296 512.268 142.276 512.964 142.863L528.958 156.353C531.074 158.134 534.212 157.95 536.096 155.93C538.143 153.739 537.918 150.266 535.591 148.369L503.834 122.365C502.101 120.945 499.651 120.816 497.775 122.044L487.949 128.492C484.168 130.969 479.201 130.608 475.823 127.612C473.258 125.333 473.06 121.389 475.393 118.871L484.223 109.345C470.214 108.138 448.843 103.88 441.917 97.6157V97.6021Z" fill="black"/>
<path d="M558.668 97.6021C558.804 98.2708 558.668 115.002 558.654 124.992C558.647 130.335 556.471 135.446 552.629 139.158L541.275 148.983L504.953 118.625C502.803 116.831 499.726 116.674 497.413 118.25L484.584 126.971C482.742 128.219 480.286 128.049 478.641 126.554C476.601 124.698 476.533 121.519 478.491 119.574L488.064 110.076C520.961 111.256 546.351 105.647 558.675 97.6021H558.668Z" fill="black"/>
<path d="M558.825 80.2089C558.825 80.2089 557.222 50.4855 531.838 35.9445C531.879 36.1151 531.879 36.3198 531.824 36.5177C531.79 36.6473 531.736 36.777 531.654 36.8998L514.738 62.802C513.899 64.0849 512.459 63.423 512.896 61.9491L521.452 33.0036L521.664 32.2803C521.746 31.9937 521.923 31.7548 522.121 31.6047C518.198 30.2878 513.858 29.2984 509.061 28.7115L501.48 69.5778C501.227 70.9562 499.406 70.9562 499.153 69.5778L491.531 28.5C486.502 29.0118 481.985 30.0353 477.932 31.4478C478.334 31.3727 478.805 31.7344 478.969 32.2803L479.078 32.6487L487.737 61.9491C488.174 63.423 486.734 64.0849 485.895 62.802L468.979 36.8998C468.829 36.6678 468.761 36.4017 468.761 36.1629C468.761 35.8831 468.877 35.6374 469.088 35.5214C444.599 49.8987 442.77 80.2089 442.77 80.2089H433.626V88.1584C444.36 99.4855 474.725 105.054 500.293 105.054C525.86 105.054 550.903 99.8881 567 88.9567V80.2089H558.818H558.825Z" fill="black"/>
<path d="M22.9992 49.4829C34.722 49.4829 42.2757 56.0199 42.9581 66.6373H34.5514C34.1284 60.5234 29.7954 56.9547 22.9173 56.9547C15.1862 56.9547 10.1777 60.8646 10.1777 66.8898C10.1777 71.8164 12.9822 74.7915 18.7549 76.1494L28.8606 78.5308C38.8844 80.8235 43.9816 86.2619 43.9816 94.921C43.9816 105.962 35.4044 113.01 22.3236 113.01C9.24286 113.01 1.51177 106.473 1 95.9377H9.49533C9.66592 101.799 14.5925 105.538 22.3168 105.538C30.471 105.538 35.65 101.717 35.65 95.6034C35.65 90.7655 33.0161 87.7085 27.1547 86.3438L17.049 84.0511C7.0252 81.7584 1.84612 75.9856 1.84612 67.1491C1.84612 56.6204 10.3415 49.4829 22.9923 49.4829H22.9992Z" fill="#060606"/>
<path d="M51.0239 100.441C51.0239 92.7986 56.7148 88.0426 66.4793 87.2784L79.5601 86.2617V85.0744C79.5601 78.1075 75.3977 75.6442 69.7955 75.6442C63.088 75.6442 59.2668 78.6193 59.2668 83.6278H52.2999C52.2999 74.9618 59.4374 69.271 70.1367 69.271C80.8361 69.271 87.3799 74.7094 87.3799 85.9205V111.993H80.5836L79.7375 105.286C77.6153 110.042 71.9245 113.017 65.2169 113.017C56.2985 113.017 51.0308 108.008 51.0308 100.448L51.0239 100.441ZM79.6488 94.0678V91.8638L69.0313 92.7099C61.9826 93.3923 59.0962 96.1081 59.0962 100.182C59.0962 104.597 62.3237 106.807 67.5028 106.807C75.0633 106.807 79.6488 101.881 79.6488 94.0678Z" fill="#060606"/>
<path d="M99.86 70.4585V63.8329C99.86 53.6385 105.469 49.4829 113.023 49.4829C114.551 49.4829 116.332 49.5648 117.949 49.8241V56.7022H114.381C109.201 56.7022 107.844 59.3361 107.844 63.8397V70.4654H117.697V77.1729H107.844V111.994H99.86V77.1729H93.7461V70.4654H99.86V70.4585Z" fill="#060606"/>
<path d="M121.095 91.2702C121.095 78.2781 129.331 69.271 141.395 69.271C153.459 69.271 160.931 77.4251 160.931 89.7417V92.7167L128.826 92.7986C129.42 101.546 134.005 106.391 141.907 106.391C148.11 106.391 152.183 103.846 153.541 99.0831H161.013C158.973 108.002 152.013 113.01 141.736 113.01C129.509 113.01 121.095 104.18 121.095 91.2702ZM128.99 87.4421H152.941C152.941 80.564 148.437 75.9786 141.388 75.9786C134.34 75.9786 130.007 80.1409 128.99 87.4421Z" fill="#060606"/>
<path d="M188.785 49.4829C200.508 49.4829 208.062 56.0199 208.744 66.6373H200.338C199.915 60.5234 195.582 56.9547 188.703 56.9547C180.972 56.9547 175.964 60.8646 175.964 66.8898C175.964 71.8164 178.768 74.7915 184.541 76.1494L194.647 78.5308C204.671 80.8235 209.768 86.2619 209.768 94.921C209.768 105.962 201.191 113.01 188.11 113.01C175.029 113.01 167.298 106.473 166.793 95.9377H175.288C175.459 101.799 180.385 105.538 188.11 105.538C196.264 105.538 201.443 101.717 201.443 95.6034C201.443 90.7655 198.809 87.7085 192.948 86.3438L182.842 84.0511C172.818 81.7584 167.639 75.9856 167.639 67.1491C167.639 56.6204 176.134 49.4829 188.785 49.4829Z" fill="#060606"/>
<path d="M218.849 70.4583H226.068L226.662 77.9301C229.467 72.2392 235.069 69.2642 241.694 69.2642C253.588 69.2642 260.971 78.1826 260.971 90.9221C260.971 103.662 254.004 113.092 241.694 113.092C235.069 113.092 229.548 110.287 226.833 105.19V130.588H218.849V70.4583ZM239.995 105.873C248.149 105.873 252.987 99.7587 252.987 91.2633C252.987 82.768 248.143 76.5722 239.995 76.5722C231.848 76.5722 226.915 82.6042 226.915 91.2633C226.915 99.9224 231.841 105.873 239.995 105.873Z" fill="#060606"/>
<path d="M267.767 100.441C267.767 92.7986 273.458 88.0426 283.222 87.2784L296.303 86.2617V85.0744C296.303 78.1075 292.141 75.6442 286.539 75.6442C279.831 75.6442 276.01 78.6193 276.01 83.6278H269.043C269.043 74.9618 276.181 69.271 286.88 69.271C297.579 69.271 304.123 74.7094 304.123 85.9205V111.993H297.327L296.481 105.286C294.358 110.042 288.668 113.017 281.96 113.017C273.042 113.017 267.774 108.008 267.774 100.448L267.767 100.441ZM296.385 94.0678V91.8638L285.768 92.7099C278.719 93.3923 275.833 96.1081 275.833 100.182C275.833 104.597 279.06 106.807 284.239 106.807C291.8 106.807 296.385 101.881 296.385 94.0678Z" fill="#060606"/>
<path d="M332.823 69.271C343.27 69.271 350.571 75.2143 352.018 84.4739H344.034C342.677 79.2061 338.432 76.4084 333.076 76.4084C325.515 76.4084 320.336 82.1812 320.336 91.1883C320.336 100.195 325.181 105.879 332.735 105.879C338.426 105.879 342.67 102.904 344.116 97.9777H352.1C350.49 106.978 342.758 113.01 332.735 113.01C320.507 113.01 312.435 104.344 312.435 91.2702C312.435 78.1962 320.671 69.271 332.817 69.271H332.823Z" fill="#060606"/>
<path d="M357.791 91.2702C357.791 78.2781 366.027 69.271 378.091 69.271C390.155 69.271 397.627 77.4251 397.627 89.7417V92.7167L365.522 92.7986C366.116 101.546 370.701 106.391 378.603 106.391C384.805 106.391 388.879 103.846 390.237 99.0831H397.709C395.669 108.002 388.709 113.01 378.432 113.01C366.204 113.01 357.791 104.18 357.791 91.2702ZM365.693 87.4421H389.643C389.643 80.564 385.14 75.9786 378.091 75.9786C371.042 75.9786 366.709 80.1409 365.693 87.4421Z" fill="#060606"/>
</svg>
